<svg width="10" height="19" viewBox="0 0 10 19" fill="none" xmlns="http://www.w3.org/2000/svg">
    <path d="M4.025 18.5V16.35C3.14166 16.15 2.37916 15.7667 1.7375 15.2C1.09583 14.6333 0.624997 13.8333 0.324997 12.8L2.175 12.05C2.425 12.85 2.79583 13.4583 3.2875 13.875C3.77916 14.2917 4.425 14.5 5.225 14.5C5.90833 14.5 6.4875 14.3458 6.9625 14.0375C7.4375 13.7292 7.675 13.25 7.675 12.6C7.675 12.0167 7.49166 11.5542 7.125 11.2125C6.75833 10.8708 5.90833 10.4833 4.575 10.05C3.14166 9.6 2.15833 9.0625 1.625 8.4375C1.09166 7.8125 0.824997 7.05 0.824997 6.15C0.824997 5.06667 1.175 4.225 1.875 3.625C2.575 3.025 3.29166 2.68333 4.025 2.6V0.5H6.025V2.6C6.85833 2.73333 7.54583 3.0375 8.0875 3.5125C8.62916 3.9875 9.025 4.56667 9.275 5.25L7.425 6.05C7.225 5.51667 6.94166 5.11667 6.575 4.85C6.20833 4.58333 5.70833 4.45 5.075 4.45C4.34166 4.45 3.78333 4.6125 3.4 4.9375C3.01666 5.2625 2.825 5.66667 2.825 6.15C2.825 6.7 3.075 7.13333 3.575 7.45C4.075 7.76667 4.94166 8.1 6.175 8.45C7.325 8.78333 8.19583 9.3125 8.7875 10.0375C9.37916 10.7625 9.675 11.6 9.675 12.55C9.675 13.7333 9.325 14.6333 8.625 15.25C7.925 15.8667 7.05833 16.25 6.025 16.4V18.5H4.025Z" fill="#6FD786"/>
    </svg>
    