<svg width="16" height="21" viewBox="0 0 16 21" fill="none" xmlns="http://www.w3.org/2000/svg">
    <path d="M6.5 13.5H9.5L8.925 10.275C9.25833 10.1083 9.52083 9.86667 9.7125 9.55C9.90417 9.23333 10 8.88333 10 8.5C10 7.95 9.80417 7.47917 9.4125 7.0875C9.02083 6.69583 8.55 6.5 8 6.5C7.45 6.5 6.97917 6.69583 6.5875 7.0875C6.19583 7.47917 6 7.95 6 8.5C6 8.88333 6.09583 9.23333 6.2875 9.55C6.47917 9.86667 6.74167 10.1083 7.075 10.275L6.5 13.5ZM8 20.5C5.68333 19.9167 3.77083 18.5875 2.2625 16.5125C0.754167 14.4375 0 12.1333 0 9.6V3.5L8 0.5L16 3.5V9.6C16 12.1333 15.2458 14.4375 13.7375 16.5125C12.2292 18.5875 10.3167 19.9167 8 20.5ZM8 18.4C9.73333 17.85 11.1667 16.75 12.3 15.1C13.4333 13.45 14 11.6167 14 9.6V4.875L8 2.625L2 4.875V9.6C2 11.6167 2.56667 13.45 3.7 15.1C4.83333 16.75 6.26667 17.85 8 18.4Z" fill="#6FD786"/>
    </svg>
    