<svg width="21" height="17" viewBox="0 0 21 17" fill="none" xmlns="http://www.w3.org/2000/svg">
    <path d="M8.95 12C9.35 12.4 9.86667 12.5958 10.5 12.5875C11.1333 12.5792 11.6 12.35 11.9 11.9L17.5 3.5L9.1 9.1C8.65 9.4 8.4125 9.85833 8.3875 10.475C8.3625 11.0917 8.55 11.6 8.95 12ZM10.5 0.5C11.4833 0.5 12.4292 0.6375 13.3375 0.9125C14.2458 1.1875 15.1 1.6 15.9 2.15L14 3.35C13.45 3.06667 12.8792 2.85417 12.2875 2.7125C11.6958 2.57083 11.1 2.5 10.5 2.5C8.28333 2.5 6.39583 3.27917 4.8375 4.8375C3.27917 6.39583 2.5 8.28333 2.5 10.5C2.5 11.2 2.59583 11.8917 2.7875 12.575C2.97917 13.2583 3.25 13.9 3.6 14.5H17.4C17.7833 13.8667 18.0625 13.2083 18.2375 12.525C18.4125 11.8417 18.5 11.1333 18.5 10.4C18.5 9.8 18.4292 9.21667 18.2875 8.65C18.1458 8.08333 17.9333 7.53333 17.65 7L18.85 5.1C19.35 5.88333 19.7458 6.71667 20.0375 7.6C20.3292 8.48333 20.4833 9.4 20.5 10.35C20.5167 11.3 20.4083 12.2083 20.175 13.075C19.9417 13.9417 19.6 14.7667 19.15 15.55C18.9667 15.85 18.7167 16.0833 18.4 16.25C18.0833 16.4167 17.75 16.5 17.4 16.5H3.6C3.25 16.5 2.91667 16.4167 2.6 16.25C2.28333 16.0833 2.03333 15.85 1.85 15.55C1.41667 14.8 1.08333 14.0042 0.85 13.1625C0.616667 12.3208 0.5 11.4333 0.5 10.5C0.5 9.11667 0.7625 7.82083 1.2875 6.6125C1.8125 5.40417 2.52917 4.34583 3.4375 3.4375C4.34583 2.52917 5.40833 1.8125 6.625 1.2875C7.84167 0.7625 9.13333 0.5 10.5 0.5Z" fill="#6FD786"/>
    </svg>
    