<svg width="21" height="19" viewBox="0 0 21 19" fill="none" xmlns="http://www.w3.org/2000/svg">
    <path d="M9.5 18.5V16.5H17.5V9.4C17.5 7.45 16.8208 5.79583 15.4625 4.4375C14.1042 3.07917 12.45 2.4 10.5 2.4C8.55 2.4 6.89583 3.07917 5.5375 4.4375C4.17917 5.79583 3.5 7.45 3.5 9.4V15.5H2.5C1.95 15.5 1.47917 15.3042 1.0875 14.9125C0.695833 14.5208 0.5 14.05 0.5 13.5V11.5C0.5 11.15 0.5875 10.8208 0.7625 10.5125C0.9375 10.2042 1.18333 9.95833 1.5 9.775L1.575 8.45C1.70833 7.31667 2.0375 6.26667 2.5625 5.3C3.0875 4.33333 3.74583 3.49167 4.5375 2.775C5.32917 2.05833 6.2375 1.5 7.2625 1.1C8.2875 0.7 9.36667 0.5 10.5 0.5C11.6333 0.5 12.7083 0.7 13.725 1.1C14.7417 1.5 15.65 2.05417 16.45 2.7625C17.25 3.47083 17.9083 4.30833 18.425 5.275C18.9417 6.24167 19.275 7.29167 19.425 8.425L19.5 9.725C19.8167 9.875 20.0625 10.1 20.2375 10.4C20.4125 10.7 20.5 11.0167 20.5 11.35V13.65C20.5 13.9833 20.4125 14.3 20.2375 14.6C20.0625 14.9 19.8167 15.125 19.5 15.275V16.5C19.5 17.05 19.3042 17.5208 18.9125 17.9125C18.5208 18.3042 18.05 18.5 17.5 18.5H9.5ZM7.5 11.5C7.21667 11.5 6.97917 11.4042 6.7875 11.2125C6.59583 11.0208 6.5 10.7833 6.5 10.5C6.5 10.2167 6.59583 9.97917 6.7875 9.7875C6.97917 9.59583 7.21667 9.5 7.5 9.5C7.78333 9.5 8.02083 9.59583 8.2125 9.7875C8.40417 9.97917 8.5 10.2167 8.5 10.5C8.5 10.7833 8.40417 11.0208 8.2125 11.2125C8.02083 11.4042 7.78333 11.5 7.5 11.5ZM13.5 11.5C13.2167 11.5 12.9792 11.4042 12.7875 11.2125C12.5958 11.0208 12.5 10.7833 12.5 10.5C12.5 10.2167 12.5958 9.97917 12.7875 9.7875C12.9792 9.59583 13.2167 9.5 13.5 9.5C13.7833 9.5 14.0208 9.59583 14.2125 9.7875C14.4042 9.97917 14.5 10.2167 14.5 10.5C14.5 10.7833 14.4042 11.0208 14.2125 11.2125C14.0208 11.4042 13.7833 11.5 13.5 11.5ZM4.525 9.95C4.40833 8.18333 4.94167 6.66667 6.125 5.4C7.30833 4.13333 8.78333 3.5 10.55 3.5C12.0333 3.5 13.3375 3.97083 14.4625 4.9125C15.5875 5.85417 16.2667 7.05833 16.5 8.525C14.9833 8.50833 13.5875 8.1 12.3125 7.3C11.0375 6.5 10.0583 5.41667 9.375 4.05C9.10833 5.38333 8.54583 6.57083 7.6875 7.6125C6.82917 8.65417 5.775 9.43333 4.525 9.95Z" fill="#6FD786"/>
    </svg>
    